<?xml version="1.0" encoding="UTF-8"?>
<svg version="1.1" xmlns="http://www.w3.org/2000/svg" width="500" height="500">
<path d="M0 0 C0.68578125 0.42410156 1.3715625 0.84820312 2.078125 1.28515625 C9.25028611 6.19890785 15.2045962 13.01154633 17.5625 21.5 C20.44850839 37.99147649 13.99075385 53.49259185 4.70410156 66.86621094 C1.63620841 71.05050709 -1.63861401 75.04949218 -5 79 C-5.70640625 79.83660156 -6.4128125 80.67320312 -7.140625 81.53515625 C-11.89123125 86.96571569 -16.97746367 92.07262397 -22.0625 97.1875 C-22.72338623 97.85313965 -23.38427246 98.5187793 -24.06518555 99.20458984 C-30.90820363 106.02471023 -38.19647457 112.28034492 -45.6875 118.375 C-46.32494141 118.90738281 -46.96238281 119.43976563 -47.61914062 119.98828125 C-53.89999498 125.08296806 -53.89999498 125.08296806 -58 125 C-60.1484375 123.8046875 -60.1484375 123.8046875 -62.375 121.875 C-63.24511719 121.1325 -64.11523438 120.39 -65.01171875 119.625 C-65.99785156 118.75875 -66.98398438 117.8925 -68 117 C-69.1509045 116.01914206 -70.30332246 115.04005793 -71.45703125 114.0625 C-79.98036559 106.80380903 -88.24705024 99.28451432 -96.35302734 91.56347656 C-97.79408672 90.19547415 -99.24941429 88.84253395 -100.70703125 87.4921875 C-115.14125652 73.73420219 -129.47970398 55.72224746 -130.3125 35.0625 C-129.98177732 22.49503834 -123.81247771 13.15200245 -114.94921875 4.66015625 C-108.9423781 -0.4558904 -102.37223438 -1.39393641 -94.73828125 -1.26953125 C-84.06530229 -0.21898125 -74.14016493 5.85295218 -67.37890625 14.046875 C-64.59476899 17.61979675 -61.87108312 21.2153419 -59.87890625 25.296875 C-59.11479357 27.18832918 -59.11479357 27.18832918 -57 28 C-56.88527344 27.43539062 -56.77054687 26.87078125 -56.65234375 26.2890625 C-53.54756065 15.39443439 -44.13955214 6.34892768 -34.8125 0.5 C-23.97545664 -5.42938694 -10.79406028 -6.71490959 0 0 Z " fill="#EF8FAF" transform="translate(174,183)"/>
<path d="M0 0 C1.03937317 4.65713201 0.828211 8.0704082 -0.21484375 12.7109375 C-0.48876953 13.95488281 -0.76269531 15.19882813 -1.04492188 16.48046875 C-1.33947266 17.76566406 -1.63402344 19.05085938 -1.9375 20.375 C-2.23213192 21.69638932 -2.52576175 23.01800249 -2.81835938 24.33984375 C-3.53575267 27.56223331 -4.26326616 30.7819872 -5 34 C-4.40832031 32.84242188 -3.81664062 31.68484375 -3.20703125 30.4921875 C-2.40924216 28.95292384 -1.61104324 27.41387255 -0.8125 25.875 C-0.23145508 24.73417969 -0.23145508 24.73417969 0.36132812 23.5703125 C6.34194568 12.1033433 6.34194568 12.1033433 12.3125 9.625 C13.6428125 9.315625 13.6428125 9.315625 15 9 C17.58659884 11.58659884 17.99458454 12.8243844 18.109375 16.546875 C18.00592074 17.94921769 17.8851338 19.35035481 17.75 20.75 C17.62988997 22.26820401 17.51010677 23.78643391 17.390625 25.3046875 C17.32423828 26.0790918 17.25785156 26.85349609 17.18945312 27.65136719 C17.00347218 29.95695575 16.86008113 32.26071178 16.734375 34.5703125 C16.69473633 35.29379883 16.65509766 36.01728516 16.61425781 36.76269531 C16.5577002 37.80828613 16.5577002 37.80828613 16.5 38.875 C16.12410501 45.62768496 16.12410501 45.62768496 15 49 C14.01 49 13.02 49 12 49 C12.66484463 36.63039069 13.76502812 24.32455202 15 12 C1.8272157 19.21735745 -4.00868062 39.74781123 -8.00976562 53.37475586 C-8.58902415 55.27751819 -9.28500825 57.14397421 -10 59 C-11.485 59.495 -11.485 59.495 -13 60 C-12.62103379 49.13841619 -9.85228344 38.66958497 -7.4375 28.125 C-6.79863662 25.32662896 -6.16193193 22.52784888 -5.53175354 19.72750854 C-5.14189255 17.99563508 -4.74706202 16.2648705 -4.34654236 14.53543091 C-3.46390754 10.62017207 -2.74718822 7.04396695 -3 3 C-10.30357319 8.51494302 -15.95234193 15.61300202 -18.625 24.5 C-19.34692119 27.87639025 -19.34692119 27.87639025 -17.8125 29.9375 C-15.8775103 31.15580689 -15.8775103 31.15580689 -13 32 C-13 32.66 -13 33.32 -13 34 C-16.375 33.6875 -16.375 33.6875 -20 33 C-22.31643452 29.52534822 -22.23187842 27.65820031 -21.6640625 23.59765625 C-19.23947645 14.11324612 -10.97523842 -0.59325613 0 0 Z " fill="#D4839E" transform="translate(335,210)"/>
<path d="M0 0 C0.99 0 1.98 0 3 0 C3.31663816 6.71272902 2.15574012 12.51128872 0.5 19 C0.26152344 19.96550781 0.02304688 20.93101562 -0.22265625 21.92578125 C-0.80687868 24.28603987 -1.39946281 26.64384982 -2 29 C0.31 29 2.62 29 5 29 C5 29.66 5 30.32 5 31 C2.36 31 -0.28 31 -3 31 C-5.83043276 44.41305289 -5.83043276 44.41305289 -7 58 C-8.485 58.495 -8.485 58.495 -10 59 C-10.21581253 52.3165556 -9.49340613 46.44088006 -8 39.9375 C-7.80921875 39.07189453 -7.6184375 38.20628906 -7.421875 37.31445312 C-6.95630821 35.20776339 -6.47935439 33.10359536 -6 31 C-8.86888959 31.12973396 -11.26272285 31.24200554 -14 32 C-16.0552348 34.27683622 -16.0552348 34.27683622 -17.1875 37.25 C-19.33476084 41.77395503 -21.20536103 44.76339617 -25 48 C-27.375 47.3125 -27.375 47.3125 -30 46 C-32.64551931 40.81731029 -32.55049248 35.68842224 -32 30 C-30.46696367 25.8389014 -29.69096643 24.46064429 -26 22 C-23.73828125 21.8046875 -23.73828125 21.8046875 -21.3125 21.875 C-20.10013672 21.90207031 -20.10013672 21.90207031 -18.86328125 21.9296875 C-18.24839844 21.95289063 -17.63351563 21.97609375 -17 22 C-17.33 22.99 -17.66 23.98 -18 25 C-19.093125 24.9175 -20.18625 24.835 -21.3125 24.75 C-24.99075038 24.60126998 -24.99075038 24.60126998 -26.875 26.8125 C-29.03290371 31.00842388 -29.24190968 34.32307956 -29 39 C-28.1025173 41.83378132 -28.1025173 41.83378132 -27 44 C-23.22745785 42.74248595 -22.82519524 41.50599175 -20.875 38.125 C-20.35679687 37.24070313 -19.83859375 36.35640625 -19.3046875 35.4453125 C-17.89797723 32.97322863 -17.89797723 32.97322863 -17 30 C-20.3 30 -23.6 30 -27 30 C-27 29.34 -27 28.68 -27 28 C-26.21641113 28.07210693 -25.43282227 28.14421387 -24.62548828 28.21850586 C-21.09148997 28.28388998 -18.37610989 28.08084094 -15 27 C-11.64981683 23.31539971 -9.8467351 19.10097613 -7.875 14.5625 C-6.79087033 12.25045352 -5.70501832 9.93921362 -4.6171875 7.62890625 C-4.15940918 6.59838135 -3.70163086 5.56785645 -3.22998047 4.50610352 C-2 2 -2 2 0 0 Z M-1 6 C-2.64954167 9.10220977 -4.2939881 12.20709211 -5.9375 15.3125 C-6.40607422 16.19357422 -6.87464844 17.07464844 -7.35742188 17.98242188 C-7.80537109 18.82998047 -8.25332031 19.67753906 -8.71484375 20.55078125 C-9.12855225 21.33106689 -9.54226074 22.11135254 -9.96850586 22.9152832 C-11.11114267 25.10462078 -11.11114267 25.10462078 -12 28 C-9.69 28 -7.38 28 -5 28 C-0.74231951 17.19485055 -0.74231951 17.19485055 -1 6 Z " fill="#D485A0" transform="translate(236,210)"/>
<path d="M0 0 C1.32 0.33 2.64 0.66 4 1 C3.0353547 3.67132544 2.17590717 5.78349887 0.375 8 C-1.33518303 10.48753895 -1.2463356 12.04397282 -1 15 C3.59506182 11.44984265 6.76454254 8.52289491 9 3 C9.66 3.33 10.32 3.66 11 4 C10.67 7.3 10.34 10.6 10 14 C11.65 12.35 13.3 10.7 15 9 C15.66 9.66 16.32 10.32 17 11 C17.99 8.69 18.98 6.38 20 4 C21.65 5.32 23.3 6.64 25 8 C25.67095703 7.3503125 25.67095703 7.3503125 26.35546875 6.6875 C31.35506003 2.08233276 31.35506003 2.08233276 34.9375 1.625 C35.618125 1.74875 36.29875 1.8725 37 2 C36 5 36 5 33.9375 6.1875 C33.298125 6.455625 32.65875 6.72375 32 7 C33.30155006 11.07964281 33.30155006 11.07964281 35 15 C37.64 12.03 40.28 9.06 43 6 C43.99 6.33 44.98 6.66 46 7 C40 15 40 15 38.36328125 17.01171875 C36.92734199 19.10596827 36.45785283 20.58723316 36 23.0625 C35.3120592 26.19321363 34.69449961 28.04036392 32 30 C31.01 29.67 30.02 29.34 29 29 C29.4979837 25.26512223 29.87491756 23.18762365 32 20 C31.65262237 16.61306808 30.64599285 13.96278714 29 11 C27.88625 11.020625 26.7725 11.04125 25.625 11.0625 C22 11 22 11 20 10 C19.9175 10.78375 19.835 11.5675 19.75 12.375 C19 15 19 15 17.125 16.3125 C15 17 15 17 12 17 C10.32900023 17.31088368 8.66128463 17.64080332 7 18 C7 16.68 7 15.36 7 14 C6.278125 14.495 5.55625 14.99 4.8125 15.5 C1.84207346 17.08422749 0.3012342 17.3668038 -3 17 C-4.54076187 15.45923813 -4.24356699 14.0155515 -4.3125 11.875 C-4.28845897 6.86645197 -2.78710228 4.09355647 0 0 Z " fill="#D887A2" transform="translate(358,232)"/>
<path d="M0 0 C0.66 0 1.32 0 2 0 C2.33 0.99 2.66 1.98 3 3 C5.475 3.495 5.475 3.495 8 4 C7.64609358 10.01640907 6.21170797 11.88857079 2 16 C-0.5371876 21.87251861 -1.95190993 27.74031802 -3.1875 34 C-3.36474609 34.87011719 -3.54199219 35.74023438 -3.72460938 36.63671875 C-4.15558102 38.75663333 -4.57862591 40.87815687 -5 43 C-5.99 43 -6.98 43 -8 43 C-7.7834375 41.72125 -7.566875 40.4425 -7.34375 39.125 C-7.06216567 37.41672174 -6.78093446 35.70838525 -6.5 34 C-6.35691406 33.16082031 -6.21382813 32.32164062 -6.06640625 31.45703125 C-5.21519758 26.22817799 -4.85285417 21.29724973 -5 16 C-4.34 16 -3.68 16 -3 16 C-3 15.34 -3 14.68 -3 14 C-3.78375 14.20625 -4.5675 14.4125 -5.375 14.625 C-6.24125 14.74875 -7.1075 14.8725 -8 15 C-8.66 14.34 -9.32 13.68 -10 13 C-10.99 14.485 -10.99 14.485 -12 16 C-13.32 16 -14.64 16 -16 16 C-16.33 15.34 -16.66 14.68 -17 14 C-18.32 15.98 -19.64 17.96 -21 20 C-21.66 19.67 -22.32 19.34 -23 19 C-22.48594831 14.03083364 -21.76615118 9.70973649 -20 5 C-19.01 5 -18.02 5 -17 5 C-17 5.99 -17 6.98 -17 8 C-16.01 7.67 -15.02 7.34 -14 7 C-13.67 7.99 -13.34 8.98 -13 10 C-12.34 9.01 -11.68 8.02 -11 7 C-10.01 7 -9.02 7 -8 7 C-8 8.65 -8 10.3 -8 12 C-5.02877247 10.7954483 -3.34472323 9.75946836 -2 6.796875 C-1.26325402 4.54413248 -0.59175308 2.29484731 0 0 Z M4 6 C3.01 7.485 3.01 7.485 2 9 C2.33 9.99 2.66 10.98 3 12 C3.99 10.35 4.98 8.7 6 7 C5.34 6.67 4.68 6.34 4 6 Z " fill="#DD87A3" transform="translate(264,230)"/>
<path d="M0 0 C0.99 0.33 1.98 0.66 3 1 C1.62204985 6.00028879 0.17687203 10.8115769 -2.0625 15.5 C-4.25002944 20.18516842 -5.19321484 24.91513037 -6 30 C-4.35 29.67 -2.7 29.34 -1 29 C-0.34 30.32 0.32 31.64 1 33 C1.40992188 32.4946875 1.81984375 31.989375 2.2421875 31.46875 C2.78101563 30.8190625 3.31984375 30.169375 3.875 29.5 C4.67550781 28.52546875 4.67550781 28.52546875 5.4921875 27.53125 C5.98976563 27.0259375 6.48734375 26.520625 7 26 C7.66 26 8.32 26 9 26 C7.5140084 30.59306496 5.14985318 33.43569245 2 37 C0.125 36.6875 0.125 36.6875 -2 36 C-2.66 35.01 -3.32 34.02 -4 33 C-5.98 36.63 -7.96 40.26 -10 44 C-10.66 44 -11.32 44 -12 44 C-12 41.36 -12 38.72 -12 36 C-12.78375 35.896875 -13.5675 35.79375 -14.375 35.6875 C-17 35 -17 35 -19 32 C-19.99 32.99 -20.98 33.98 -22 35 C-22.66 34.67 -23.32 34.34 -24 34 C-24.31924758 29.42411796 -24.03616654 26.55964352 -21 23 C-18.3125 22.6875 -18.3125 22.6875 -16 23 C-14.8422494 26.47325181 -14.93133348 29.36067448 -15 33 C-10.11668445 28.92512632 -8.80603194 25.28954111 -7.375 19.1875 C-3.47700669 3.47700669 -3.47700669 3.47700669 0 0 Z M-19 25 C-19 28 -19 28 -19 28 Z " fill="#D886A2" transform="translate(296,212)"/>
<path d="M0 0 C3 2 3 2 3.828125 4.140625 C4.05927778 7.98616675 2.9982135 11.17086848 1.75 14.75 C1.53214844 15.43449219 1.31429688 16.11898438 1.08984375 16.82421875 C0.421875 18.796875 0.421875 18.796875 -1 22 C-1.99 22.33 -2.98 22.66 -4 23 C-3.54593375 15.04601192 -2.12888539 7.67202093 0 0 Z " fill="#E591AD" transform="translate(326,247)"/>
<path d="M0 0 C1.32 0.33 2.64 0.66 4 1 C3.53320521 7.15070788 2.13392775 11.57947886 -0.75 17 C-1.10835937 17.69480469 -1.46671875 18.38960937 -1.8359375 19.10546875 C-4.33196617 23.89102013 -7.00465683 28.50698525 -10 33 C-10.66 32.34 -11.32 31.68 -12 31 C-11.34 31 -10.68 31 -10 31 C-9.7525 29.72125 -9.505 28.4425 -9.25 27.125 C-8.828125 24.9453125 -8.828125 24.9453125 -8 23 C-7.3296875 22.68675781 -6.659375 22.37351563 -5.96875 22.05078125 C-5.3190625 21.70402344 -4.669375 21.35726562 -4 21 C-3.29660372 18.68612928 -3.29660372 18.68612928 -3.25 16.0625 C-3.19328125 15.18722656 -3.1365625 14.31195313 -3.078125 13.41015625 C-3.01969302 11.6075296 -3 9.80357343 -3 8 C-2.34 7.34 -1.68 6.68 -1 6 C-0.01 6 0.98 6 2 6 C2 5.01 2 4.02 2 3 C1.01 2.67 0.02 2.34 -1 2 C-0.67 1.34 -0.34 0.68 0 0 Z " fill="#E38EAB" transform="translate(187,219)"/>
<path d="M0 0 C0.66 0 1.32 0 2 0 C0.5140084 4.59306496 -1.85014682 7.43569245 -5 11 C-6.32 10.67 -7.64 10.34 -9 10 C-9.33 8.35 -9.66 6.7 -10 5 C-10.99 4.67 -11.98 4.34 -13 4 C-11.35 3.67 -9.7 3.34 -8 3 C-7.34 4.32 -6.68 5.64 -6 7 C-5.59007812 6.4946875 -5.18015625 5.989375 -4.7578125 5.46875 C-4.21898437 4.8190625 -3.68015625 4.169375 -3.125 3.5 C-2.59132813 2.8503125 -2.05765625 2.200625 -1.5078125 1.53125 C-1.01023437 1.0259375 -0.51265625 0.520625 0 0 Z " fill="#D3859E" transform="translate(303,238)"/>
<path d="M0 0 C0.99 0.66 1.98 1.32 3 2 C3.61829563 5.97475764 3.31867116 7.5419102 1 10.875 C0.34 11.57625 -0.32 12.2775 -1 13 C-1.99 12.67 -2.98 12.34 -4 12 C-3.45660208 7.43545749 -2.20536179 4.0271824 0 0 Z " fill="#E07F9F" transform="translate(391,249)"/>
<path d="M0 0 C0.33 0 0.66 0 1 0 C2.05268874 6.81402575 1.93833398 12.36801431 0 19 C-0.99 19 -1.98 19 -3 19 C-2.01 12.73 -1.02 6.46 0 0 Z " fill="#CF89A2" transform="translate(259,254)"/>
<path d="M0 0 C0.66 0 1.32 0 2 0 C1.54705135 1.75140143 1.08741252 3.50107344 0.625 5.25 C0.36976563 6.22453125 0.11453125 7.1990625 -0.1484375 8.203125 C-0.89598509 10.65837303 -1.77123817 12.75617405 -3 15 C-3.66 15 -4.32 15 -5 15 C-4.67 11.37 -4.34 7.74 -4 4 C-3.67 4.99 -3.34 5.98 -3 7 C-2.34 7 -1.68 7 -1 7 C-0.67 4.69 -0.34 2.38 0 0 Z " fill="#D889A4" transform="translate(327,255)"/>
<path d="M0 0 C0.99 0.33 1.98 0.66 3 1 C2.09066991 2.27609323 1.17217147 3.54565553 0.25 4.8125 C-0.26046875 5.52019531 -0.7709375 6.22789062 -1.296875 6.95703125 C-3.02482358 9.02977691 -4.78526476 10.47375854 -7 12 C-6.67566492 6.64847115 -3.50295176 3.71719957 0 0 Z " fill="#D38BA4" transform="translate(401,238)"/>
<path d="M0 0 C0.66 0.33 1.32 0.66 2 1 C2 4.3 2 7.6 2 11 C0.68 11.33 -0.64 11.66 -2 12 C-2.28571429 3.42857143 -2.28571429 3.42857143 0 0 Z " fill="#D690A7" transform="translate(349,247)"/>
<path d="M0 0 C1.99701936 0.26556108 3.97764818 0.64787339 5.953125 1.04296875 C4.953125 3.04296875 4.953125 3.04296875 2.203125 4.23046875 C-1.09109292 5.05402323 -2.83709205 4.98702256 -6.046875 4.04296875 C-4.28243726 1.61686685 -3.12317824 0.0655629 0 0 Z " fill="#EB83AA" transform="translate(287.046875,241.95703125)"/>
<path d="M0 0 C0.99 0.33 1.98 0.66 3 1 C1.35 4.3 -0.3 7.6 -2 11 C-2.33 11 -2.66 11 -3 11 C-3.36923077 4.6 -3.36923077 4.6 -1.5 1.5625 C-1.005 1.046875 -0.51 0.53125 0 0 Z " fill="#E893B1" transform="translate(296,212)"/>
<path d="M0 0 C0.91058531 3.07322544 1.08886184 5.80097361 1 9 C-0.14926266 8.04578192 -1.29430541 7.08647955 -2.4375 6.125 C-3.07558594 5.59132813 -3.71367188 5.05765625 -4.37109375 4.5078125 C-6 3 -6 3 -7 1 C-4.525 1.99 -4.525 1.99 -2 3 C-1.34 2.01 -0.68 1.02 0 0 Z " fill="#E090AA" transform="translate(84,272)"/>
<path d="M0 0 C0.66 0.33 1.32 0.66 2 1 C0.71372289 2.17260611 -0.57919783 3.3379283 -1.875 4.5 C-2.59429687 5.1496875 -3.31359375 5.799375 -4.0546875 6.46875 C-6 8 -6 8 -8 8 C-7.875 6.1875 -7.875 6.1875 -7 4 C-4 2.3125 -4 2.3125 -1 1 C-0.67 0.67 -0.34 0.34 0 0 Z " fill="#D891A9" transform="translate(131,296)"/>
<path d="M0 0 C0.99 0 1.98 0 3 0 C3.3125 2.3125 3.3125 2.3125 3 5 C0.5 6.8125 0.5 6.8125 -2 8 C-1.34 5.36 -0.68 2.72 0 0 Z " fill="#D6829E" transform="translate(244,235)"/>
<path d="M0 0 C0.66 0.66 1.32 1.32 2 2 C2.99 1.67 3.98 1.34 5 1 C4.34 2.32 3.68 3.64 3 5 C1.68 5 0.36 5 -1 5 C-0.67 3.35 -0.34 1.7 0 0 Z " fill="#D187A0" transform="translate(388,256)"/>
<path d="M0 0 C0 4.45351799 -1.55160412 7.32740617 -4 11 C-4.66 11 -5.32 11 -6 11 C-4.54955729 6.89041233 -2.48889248 3.56741255 0 0 Z " fill="#DF90AB" transform="translate(123,199)"/>
<path d="M0 0 C0.66 0.33 1.32 0.66 2 1 C1.67 2.65 1.34 4.3 1 6 C0.01 6 -0.98 6 -2 6 C-1.125 1.125 -1.125 1.125 0 0 Z " fill="#E277A4" transform="translate(372,241)"/>
<path d="M0 0 C0.33 0 0.66 0 1 0 C1.25 2.25 1.25 2.25 1 5 C-1 7.3125 -1 7.3125 -3 9 C-3.25873987 5.89512156 -3.23307327 4.37494396 -1.5625 1.6875 C-1.046875 1.130625 -0.53125 0.57375 0 0 Z " fill="#D28DA3" transform="translate(323,216)"/>
<path d="M0 0 C3.53600465 1.91135386 5.78972846 3.62642766 8 7 C6.35 6.67 4.7 6.34 3 6 C2.67 4.68 2.34 3.36 2 2 C1.34 2 0.68 2 0 2 C0 1.34 0 0.68 0 0 Z " fill="#DC93AB" transform="translate(176,185)"/>
</svg>
